HIERARCHY
ROOT Hips
{
	OFFSET -0.001795 -0.223333 0.028219
	CHANNELS 6 Xposition Yposition Zposition Zrotation Yrotation Xrotation 
	JOINT LeftUpLeg
	{
		OFFSET 0.069520 -0.091406 -0.006815
		CHANNELS 3 Zrotation Yrotation Xrotation
		JOINT LeftLeg
		{
			OFFSET 0.034277 -0.375199 -0.004496
			CHANNELS 3 Zrotation Yrotation Xrotation
			JOINT LeftFoot
			{
				OFFSET -0.013596 -0.397961 -0.043693
				CHANNELS 3 Zrotation Yrotation Xrotation
				JOINT LeftToe
				{
					OFFSET 0.026358 -0.055791 0.119288
					CHANNELS 3 Zrotation Yrotation Xrotation
					End Site
					{
						OFFSET 0.000000 0.000000 0.000000
					}
				}
			}
		}
	}
	JOINT RightUpLeg
	{
		OFFSET -0.067670 -0.090522 -0.004320
		CHANNELS 3 Zrotation Yrotation Xrotation
		JOINT RightLeg
		{
			OFFSET -0.038290 -0.382569 -0.008850
			CHANNELS 3 Zrotation Yrotation Xrotation
			JOINT RightFoot
			{
				OFFSET 0.015774 -0.398415 -0.042312
				CHANNELS 3 Zrotation Yrotation Xrotation
				JOINT RightToe
				{
					OFFSET -0.025372 -0.048144 0.123348
					CHANNELS 3 Zrotation Yrotation Xrotation
					End Site
					{
						OFFSET 0.000000 0.000000 0.000000
					}
				}
			}
		}
	}
	JOINT Spine
	{
		OFFSET -0.002533 0.108963 -0.026696
		CHANNELS 3 Zrotation Yrotation Xrotation
		JOINT Spine1
		{
			OFFSET 0.005487 0.135180 0.001092
			CHANNELS 3 Zrotation Yrotation Xrotation
			JOINT Spine2
			{
				OFFSET 0.001457 0.052922 0.025425
				CHANNELS 3 Zrotation Yrotation Xrotation
				JOINT Neck
				{
					OFFSET -0.002778 0.213870 -0.042857
					CHANNELS 3 Zrotation Yrotation Xrotation
					JOINT Head
					{
						OFFSET 0.005152 0.064970 0.051349
						CHANNELS 3 Zrotation Yrotation Xrotation
						End Site
						{
							OFFSET 0.000000 0.000000 0.000000
						}
					}
				}
				JOINT LeftShoulder
				{
					OFFSET 0.078845 0.121749 -0.034090
					CHANNELS 3 Zrotation Yrotation Xrotation
					JOINT LeftArm
					{
						OFFSET 0.090977 0.030469 -0.008868
						CHANNELS 3 Zrotation Yrotation Xrotation
						JOINT LeftForeArm
						{
							OFFSET 0.259612 -0.012772 -0.027456
							CHANNELS 3 Zrotation Yrotation Xrotation
							JOINT LeftHand
							{
								OFFSET 0.249234 0.008986 -0.001171
								CHANNELS 3 Zrotation Yrotation Xrotation
								End Site
								{
									OFFSET 0.000000 0.000000 0.000000
								}
							}
						}
					}
				}
				JOINT RightShoulder
				{
					OFFSET -0.081759 0.118833 -0.038615
					CHANNELS 3 Zrotation Yrotation Xrotation
					JOINT RightArm
					{
						OFFSET -0.096012 0.032551 -0.009143
						CHANNELS 3 Zrotation Yrotation Xrotation
						JOINT RightForeArm
						{
							OFFSET -0.253742 -0.013329 -0.021401
							CHANNELS 3 Zrotation Yrotation Xrotation
							JOINT RightHand
							{
								OFFSET -0.255298 0.007772 -0.005559
								CHANNELS 3 Zrotation Yrotation Xrotation
								End Site
								{
									OFFSET 0.000000 0.000000 0.000000
								}
							}
						}
					}
				}
			}
		}
	}
}
MOTION
Frames: 17
Frame Time: 0.050000
-0.060041 0.730581 0.030799 -2.814279 12.770916 7.852524 13.140944 -3.596944 -63.527641 -11.133785 3.065799 62.965097 -1.383623 18.960299 121.992930 0.000000 0.000000 0.000000 -9.564914 -0.943375 -35.808912 2.468516 -6.325668 81.124989 -10.235676 -26.219627 -11.189502 0.000000 0.000000 0.000000 -16.463130 2.646370 71.920058 -8.005243 3.576022 -3.525754 3.770856 12.219709 12.174905 -2.950636 4.811308 -27.953579 0.000000 0.000000 0.000000 3.082125 -37.496847 11.614290 -16.476997 -40.727369 0.800544 90.336843 -4.480453 -7.985403 0.000000 0.000000 0.000000 -5.578947 31.446694 10.670579 38.295935 37.645465 8.932036 -87.948982 28.778902 -18.381898 0.000000 0.000000 0.000000 
-0.073646 0.736240 0.022101 -2.340731 12.865858 7.197974 12.313504 -3.881054 -61.605836 -9.265049 1.463754 60.374376 0.867060 19.013794 125.404927 0.000000 0.000000 0.000000 -8.114452 -0.387044 -34.055814 1.176725 -5.002982 79.868105 -9.290294 -23.875774 -14.177989 0.000000 0.000000 0.000000 -15.530164 1.909463 69.938322 -7.963728 3.581177 -3.012549 3.242872 10.913235 11.906657 -4.028059 5.193891 -28.443175 0.000000 0.000000 0.000000 2.285313 -35.516462 11.161271 -19.241521 -40.426815 1.631187 89.428167 -5.992279 -8.981104 0.000000 0.000000 0.000000 -3.394400 31.652743 11.427815 39.918369 35.894454 8.464488 -82.125425 34.358095 -21.673643 0.000000 0.000000 0.000000 
-0.090780 0.744077 0.012353 -1.711203 12.633641 6.118731 11.821308 -3.743784 -58.741193 -7.757067 0.327047 56.804500 3.375853 18.879705 128.813943 0.000000 0.000000 0.000000 -6.633302 0.145246 -32.604107 -0.157476 -3.461947 78.801436 -8.150225 -20.189781 -16.891580 0.000000 0.000000 0.000000 -15.307592 1.840597 69.046293 -8.020536 3.627847 -2.739461 3.250720 10.119496 11.345137 -4.596994 5.361282 -28.533090 0.000000 0.000000 0.000000 1.220812 -33.504173 10.680764 -22.525715 -40.121181 2.595066 88.481968 -8.506267 -10.975871 0.000000 0.000000 0.000000 -1.379934 31.170224 11.838309 41.292113 34.083489 7.941516 -76.290024 40.365396 -24.456704 0.000000 0.000000 0.000000 
-0.111567 0.756361 0.000844 -1.547434 12.710968 4.794282 11.610928 -3.492360 -55.421141 -5.637772 -1.030983 52.239942 6.607818 18.409916 131.288805 0.000000 0.000000 0.000000 -4.546895 0.775042 -30.701959 -0.647818 -2.862441 75.729715 -7.779172 -19.119584 -19.151211 0.000000 0.000000 0.000000 -14.679462 1.366683 68.919034 -8.148139 3.680978 -3.122352 3.182619 8.932219 10.902434 -5.854332 5.792652 -29.330381 0.000000 0.000000 0.000000 -0.749794 -31.540237 10.337861 -25.327349 -39.430262 3.406245 89.109560 -12.131107 -14.035796 0.000000 0.000000 0.000000 0.519199 30.982652 12.236841 42.249121 33.304757 7.675859 -71.134888 45.104271 -26.033243 0.000000 0.000000 0.000000 
-0.134829 0.770196 -0.012767 -1.540022 12.080910 3.922307 11.847794 -2.945437 -52.959158 -3.293426 -2.083963 47.962605 7.695786 18.110692 130.334903 0.000000 0.000000 0.000000 -2.670791 1.341785 -29.894655 -0.214343 -2.719886 72.736527 -7.638852 -18.847789 -20.264504 0.000000 0.000000 0.000000 -14.539971 1.538450 68.462488 -8.284009 3.726096 -3.659939 3.528263 8.867325 10.740249 -6.581970 6.085924 -30.161455 0.000000 0.000000 0.000000 -2.056421 -30.329184 10.053940 -27.858930 -38.714047 3.997729 89.085046 -14.610665 -16.336882 0.000000 0.000000 0.000000 1.737750 30.785462 12.507541 42.827008 32.772520 7.530435 -66.843220 47.996992 -26.062686 0.000000 0.000000 0.000000 
-0.159040 0.784538 -0.027738 -1.592681 11.448944 2.756289 11.886360 -2.493839 -50.185569 -0.546362 -3.132098 43.497770 8.284527 17.848591 128.261226 0.000000 0.000000 0.000000 -1.020219 1.803055 -28.968977 0.342071 -2.622888 69.069602 -7.803890 -19.865486 -19.504723 0.000000 0.000000 0.000000 -14.115268 1.510860 67.934115 -8.530666 3.812227 -4.354013 3.476017 8.185014 11.145185 -7.707554 6.489502 -31.416861 0.000000 0.000000 0.000000 -2.859083 -29.010085 9.699939 -29.851603 -37.854952 4.356442 89.984275 -16.406637 -18.068660 0.000000 0.000000 0.000000 3.910398 30.961692 13.163272 41.465763 32.695627 6.934880 -61.576315 49.714860 -24.761007 0.000000 0.000000 0.000000 
-0.181981 0.798513 -0.042380 -1.464662 11.785747 1.615403 11.602967 -2.485361 -48.101546 1.745363 -3.930831 39.700840 7.700084 17.500759 124.110565 0.000000 0.000000 0.000000 -0.217623 1.937025 -27.782361 1.506073 -3.519085 65.923965 -7.896290 -20.506368 -18.745870 0.000000 0.000000 0.000000 -13.912914 1.217626 68.136487 -8.619176 3.860277 -4.441504 3.529267 8.469955 10.815772 -7.806126 6.543089 -32.187410 0.000000 0.000000 0.000000 -4.406475 -29.201777 9.867333 -30.386939 -36.867397 4.381920 89.140952 -18.862310 -20.271650 0.000000 0.000000 0.000000 5.000300 31.017316 13.530568 40.091071 32.510040 6.505639 -56.534112 50.003163 -22.525309 0.000000 0.000000 0.000000 
-0.202365 0.812235 -0.055066 -1.064778 12.335441 0.448812 10.787044 -2.685354 -45.893696 3.960209 -4.568542 36.098252 6.767057 17.074640 119.824740 0.000000 0.000000 0.000000 0.281717 1.948121 -26.033087 2.299369 -4.027614 62.065977 -7.990659 -21.179656 -17.699375 0.000000 0.000000 0.000000 -13.614102 0.778274 68.505363 -9.083440 4.053487 -4.839075 3.673293 8.658262 10.443613 -8.512004 6.833875 -32.877349 0.000000 0.000000 0.000000 -6.833387 -30.093981 10.427061 -30.404847 -35.658534 4.289967 87.839478 -21.181894 -22.010070 0.000000 0.000000 0.000000 5.894063 30.980177 13.762756 38.504082 32.460417 6.097194 -51.404009 49.771526 -20.045608 0.000000 0.000000 0.000000 
-0.220181 0.824189 -0.065282 -0.648063 12.899998 -0.635111 10.441700 -2.728501 -44.102864 4.961827 -4.673527 33.426603 5.422673 16.658025 115.606822 0.000000 0.000000 0.000000 0.799427 1.951370 -24.321036 2.449380 -4.042472 58.891935 -7.793981 -20.661413 -16.664677 0.000000 0.000000 0.000000 -13.324585 0.344389 68.393649 -9.377340 4.188396 -4.976236 3.357287 8.810876 10.075155 -8.511499 6.855151 -33.567800 0.000000 0.000000 0.000000 -9.771149 -30.608959 10.909487 -29.361320 -34.991257 4.110115 84.804304 -23.530346 -22.980377 0.000000 0.000000 0.000000 7.134756 31.486816 14.387732 36.339375 31.661592 5.303972 -46.597556 48.671241 -17.459011 0.000000 0.000000 0.000000 
-0.235921 0.834061 -0.072940 0.025617 14.300871 -1.771206 8.855597 -3.246403 -41.877578 7.020959 -5.127258 30.231748 5.375759 16.054778 112.896991 0.000000 0.000000 0.000000 0.915417 1.807255 -22.271899 2.258530 -4.062907 55.635174 -7.582285 -20.244524 -15.432307 0.000000 0.000000 0.000000 -13.061012 -0.435038 68.877834 -9.904353 4.405067 -5.470433 3.449168 8.409309 9.654224 -9.335884 7.114018 -34.720890 0.000000 0.000000 0.000000 -12.688139 -31.631976 11.779072 -28.167329 -33.778001 3.793751 80.946059 -25.128428 -22.622545 0.000000 0.000000 0.000000 7.835168 31.580855 14.535415 35.087958 31.156641 4.856337 -41.047492 48.473968 -15.047953 0.000000 0.000000 0.000000 
-0.250466 0.840150 -0.077980 0.464328 15.812453 -2.383050 8.795128 -3.340002 -40.608113 6.956842 -4.955792 28.735947 2.902761 15.350947 107.711764 0.000000 0.000000 0.000000 1.177649 1.707357 -20.480919 1.698681 -3.796271 52.301776 -6.965662 -18.636904 -15.628453 0.000000 0.000000 0.000000 -12.905304 -1.119007 67.969859 -10.201925 4.559597 -5.258388 3.385401 7.823499 9.055316 -10.096119 7.391032 -34.690380 0.000000 0.000000 0.000000 -15.444407 -31.863229 12.319891 -26.404219 -32.511795 3.352362 77.650722 -27.240832 -22.805292 0.000000 0.000000 0.000000 9.370510 32.037154 15.202311 34.410929 30.636806 4.507850 -37.159528 47.723862 -13.219938 0.000000 0.000000 0.000000 
-0.264450 0.844116 -0.081228 0.804536 18.401832 -2.890607 7.782224 -3.833872 -39.230141 7.958621 -5.184557 26.954683 2.377002 14.838725 101.406651 0.000000 0.000000 0.000000 1.033788 1.524692 -19.191116 1.872517 -4.390393 49.668857 -6.619805 -18.023627 -14.900284 0.000000 0.000000 0.000000 -12.896274 -2.143395 67.312487 -10.548471 4.713057 -5.406842 3.588421 7.464135 8.825033 -10.295619 7.494787 -34.616257 0.000000 0.000000 0.000000 -16.591254 -32.682577 12.872357 -24.849145 -32.168182 3.067999 72.866468 -27.588881 -21.133888 0.000000 0.000000 0.000000 10.086487 32.515395 15.664319 34.384566 30.325653 4.384335 -34.017744 46.828761 -11.656821 0.000000 0.000000 0.000000 
-0.277906 0.845435 -0.083735 0.774603 20.319753 -3.372910 8.230485 -3.794430 -38.161690 7.536096 -5.036685 26.311782 -0.006216 14.323564 92.680142 0.000000 0.000000 0.000000 1.386578 1.452851 -17.484886 2.293688 -4.730767 46.483952 -6.184898 -17.538821 -16.645065 0.000000 0.000000 0.000000 -13.444404 -2.480719 66.286886 -10.859524 4.839799 -5.714568 4.050678 7.569422 8.953784 -11.038788 7.868769 -34.420158 0.000000 0.000000 0.000000 -17.474507 -33.024681 13.029492 -22.665861 -31.653260 2.643351 69.381585 -28.196022 -20.289234 0.000000 0.000000 0.000000 10.554995 32.616066 15.933149 35.102748 31.010836 4.692760 -32.144484 45.393765 -10.457956 0.000000 0.000000 0.000000 
-0.290128 0.845666 -0.086219 0.703285 22.069731 -3.880867 8.388028 -3.808932 -37.169260 7.624207 -5.176696 26.202766 -3.234672 13.403957 81.678425 0.000000 0.000000 0.000000 1.533506 1.359301 -15.881857 3.834018 -5.722814 44.002804 -6.175367 -18.916655 -18.928836 0.000000 0.000000 0.000000 -13.888762 -2.838996 65.569935 -11.154479 4.966590 -5.820721 4.579464 7.912734 8.973202 -10.913887 7.857127 -35.002976 0.000000 0.000000 0.000000 -17.935209 -34.074687 13.455375 -20.975630 -31.314422 2.354280 65.881608 -26.243155 -17.835438 0.000000 0.000000 0.000000 10.393980 33.038863 16.167246 35.583690 31.299598 4.897462 -29.790980 43.607060 -9.074795 0.000000 0.000000 0.000000 
-0.300355 0.845209 -0.088871 0.740039 23.477407 -4.019014 8.328554 -3.950630 -36.902190 7.815869 -5.473172 26.737883 -6.014695 12.094641 71.001299 0.000000 0.000000 0.000000 1.486530 1.289366 -15.216840 5.131968 -6.549337 42.416496 -6.143381 -19.935250 -20.394162 0.000000 0.000000 0.000000 -13.962293 -3.256608 64.956117 -11.839278 5.257165 -5.651991 4.771823 7.934266 8.927426 -11.094458 7.968054 -34.811502 0.000000 0.000000 0.000000 -18.457875 -35.171626 14.054068 -18.981403 -31.245950 2.026452 63.341818 -23.993918 -15.593920 0.000000 0.000000 0.000000 10.084259 33.862712 16.502857 36.444651 32.134810 5.370773 -30.595327 40.784046 -8.675858 0.000000 0.000000 0.000000 
-0.308382 0.846620 -0.091620 1.074576 25.162015 -3.997617 7.828837 -4.190804 -36.420865 7.981870 -5.524114 26.230563 -8.111907 10.574533 63.536185 0.000000 0.000000 0.000000 1.397542 1.239569 -15.338751 5.511313 -7.133808 42.046326 -6.363851 -21.194519 -19.605485 0.000000 0.000000 0.000000 -14.567928 -3.502977 64.730679 -12.394355 5.474271 -5.695820 5.227835 8.216255 8.900892 -11.789692 8.277173 -34.938267 0.000000 0.000000 0.000000 -18.797662 -36.299190 14.577163 -18.486492 -31.454207 2.010125 61.852629 -21.930641 -13.988371 0.000000 0.000000 0.000000 9.345564 34.592089 16.648641 36.886124 32.850357 5.768930 -29.505798 38.553020 -7.784266 0.000000 0.000000 0.000000 
-0.314662 0.848180 -0.094048 1.346147 26.474722 -3.530457 7.648692 -4.405277 -36.458686 7.543050 -5.491456 26.414545 -9.037795 9.245939 54.938399 0.000000 0.000000 0.000000 1.193855 1.190912 -16.014687 5.915483 -7.661464 41.812783 -6.607904 -22.075500 -18.577568 0.000000 0.000000 0.000000 -14.396083 -3.940522 63.709139 -13.021290 5.749666 -5.048442 4.854769 7.844538 8.530153 -12.145029 8.353102 -35.359001 0.000000 0.000000 0.000000 -18.464694 -36.822906 14.787935 -17.326334 -32.252833 1.874607 59.434683 -19.604386 -11.995493 0.000000 0.000000 0.000000 9.223290 35.509373 17.098945 37.579558 33.321635 6.124738 -29.686623 36.648367 -7.411715 0.000000 0.000000 0.000000 
